<?xml version="1.0" encoding="UTF-8" standalone="no"?>
<!DOCTYPE svg PUBLIC "-//W3C//DTD SVG 1.1//EN" "http://www.w3.org/Graphics/SVG/1.1/DTD/svg11.dtd">
<svg width="100%" height="100%" viewBox="0 0 2109 2453" version="1.1" xmlns="http://www.w3.org/2000/svg" xmlns:xlink="http://www.w3.org/1999/xlink" xml:space="preserve" xmlns:serif="http://www.serif.com/" style="fill-rule:evenodd;clip-rule:evenodd;stroke-linejoin:round;stroke-miterlimit:2;">
    <g transform="matrix(1,0,0,1,-185.421342,-69.605469)">
        <g transform="matrix(1,0,0,1,121.188033,40.644531)">
            <g transform="matrix(1,0,0,1,64,64)">
                <text x="0px" y="0px" style="font-family:'Consolas', monospace;font-size:48px;fill:rgb(226,226,226);">$$$$$$$$$$$$@$$$$$$$$$$$$@$$$$$$$$@$$$$$$@$$$$$$$$$$@$$$$$$$$$$$$$$$$$$$$$$$$$$$</text>
            </g>
            <g transform="matrix(1,0,0,1,64,120)">
                <text x="0px" y="0px" style="font-family:'Consolas', monospace;font-size:48px;fill:rgb(226,226,226);">$$$$$$$$$$$$$$$$$$$$$$$$@$$$$$$$$@$$$$$$@$$$$$$$$$$$$$$$$$@$$$$$$$$$$$$$$$$$$$$$</text>
            </g>
            <g transform="matrix(1,0,0,1,64,176)">
                <text x="0px" y="0px" style="font-family:'Consolas', monospace;font-size:48px;fill:rgb(226,226,226);">$$$$$$$$$$$$$$$$@$$$$$$$$$$$$@$$$$$$$$$$$$$$$$$$$@$$$$$$$$$$@$$$$$$$$$$$$$$@$$$$</text>
            </g>
            <g transform="matrix(1,0,0,1,64,232)">
                <text x="0px" y="0px" style="font-family:'Consolas', monospace;font-size:48px;fill:rgb(226,226,226);">@@$$$$$$$@@$$$$$$$@$$$$$$$$$$$@$$$$$$$$$$$$$$$$$$$$$@$$$@$$$$$$$$$$$$$$$$$$@$$$$</text>
            </g>
            <g transform="matrix(1,0,0,1,64,288)">
                <text x="0px" y="0px" style="font-family:'Consolas', monospace;font-size:48px;fill:rgb(226,226,226);">$$$$$$$$$$$$$$$$$$$$$$$$$$$$$$$$$@$$$$$$$$$$$$$$$$$$@$$$$$$$$$$$$$$$$$@$$$$$$$$$</text>
            </g>
            <g transform="matrix(1,0,0,1,64,344)">
                <text x="0px" y="0px" style="font-family:'Consolas', monospace;font-size:48px;fill:rgb(226,226,226);">@$$$$$@$$@$$$$$@$$$$$$$$$@$$$$$$$$$$$$$$$@$$@@$$$$$$$$$$$$$$$$$$$$$$$$$$$$$$$$$$</text>
            </g>
            <g transform="matrix(1,0,0,1,64,400)">
                <text x="0px" y="0px" style="font-family:'Consolas', monospace;font-size:48px;fill:rgb(226,226,226);">$@$$$$$$@$$$$$$$$$$$$$$$$$$@$$$$$$$$$@$$$$@@$$$$$$$$$$$$$$$@$$$$$$$$$$$$$$$$$$$$</text>
            </g>
            <g transform="matrix(1,0,0,1,64,456)">
                <text x="0px" y="0px" style="font-family:'Consolas', monospace;font-size:48px;fill:rgb(226,226,226);">$$$$$$$@$$$$$$$$$$$$$$$$@$@$$$$$$$$@$$$$$$$$@$$@$$$$$$$$$$$$$$$$$$$$$$$$$$$$$$$$</text>
            </g>
            <g transform="matrix(1,0,0,1,64,512)">
                <text x="0px" y="0px" style="font-family:'Consolas', monospace;font-size:48px;fill:rgb(226,226,226);">$$$$$$$$$$$$$$$$$$$$$$$$$$$$$$$$$$$$$$$$$$$$$$$$$$$$$$$$$$$$$$$$$$@$$@$@$$$$$@$$</text>
            </g>
            <g transform="matrix(1,0,0,1,64,568)">
                <text x="0px" y="0px" style="font-family:'Consolas', monospace;font-size:48px;fill:rgb(226,226,226);">$$$$$$@$@$$$$$$$$$$$$$$$$$$$$$$$$$$$$$$$$$$$@$$$$$$$$$$$$$$$$$$$$$$$$$$$$$$$$$$$</text>
            </g>
            <g transform="matrix(1,0,0,1,64,624)">
                <text x="0px" y="0px" style="font-family:'Consolas', monospace;font-size:48px;fill:rgb(226,226,226);">$$@$$$$$$$$@$$$$$$$$$$$$$$$$$$@$$$$$$$$$$$$$$$$$$$$$$@$$$$$$$$$$$$@$$$$$$$@$$$$$</text>
            </g>
            <g transform="matrix(1,0,0,1,64,680)">
                <text x="0px" y="0px" style="font-family:'Consolas', monospace;font-size:48px;fill:rgb(226,226,226);">$$$$$@$$$$$$$$$$$$$$$$$$$$$$$$$$$$$$$$$$$$$$$$$$$@$$$@$$$$$$$$$$$$$$$$$$$$$$$$$$</text>
            </g>
            <g transform="matrix(1,0,0,1,64,736)">
                <text x="0px" y="0px" style="font-family:'Consolas', monospace;font-size:48px;fill:rgb(226,226,226);">$$$$$@$$$$@$$$$$@$$$$$$$$$$$$$$$$$$$$$$$$@$$$$$$$$$$$$$$$$$@$$$$$$$$$$$$$$@$@@$$</text>
            </g>
            <g transform="matrix(1,0,0,1,64,792)">
                <text x="0px" y="0px" style="font-family:'Consolas', monospace;font-size:48px;fill:rgb(226,226,226);">@$$$$$$@$$$$$$$$$$$$$$$$$$$$$$$$$$$$$$$@$$$$$$$$$$$$$$$$$$$$$$$$$$$@$$$$@$$$$$$$</text>
            </g>
            <g transform="matrix(1,0,0,1,64,848)">
                <text x="0px" y="0px" style="font-family:'Consolas', monospace;font-size:48px;fill:rgb(226,226,226);">$$$$$$$$$@$$$@@$$$$$$$$$$$$$$$$$$$$$$$$$$$$$$$$$@@$$$@$$$$$$$$$$$$$$$$$$$$$$$$$$</text>
            </g>
            <g transform="matrix(1,0,0,1,64,904)">
                <text x="0px" y="0px" style="font-family:'Consolas', monospace;font-size:48px;fill:rgb(226,226,226);">$$@$$$$$$$$$$$$$$$$$$$$$$$$$$@@$@@@@$@$$@@$$$$$$$$$$@$$$@@$$$$$$$$$$$$$$$$$$$@$$</text>
            </g>
            <g transform="matrix(1,0,0,1,64,960)">
                <text x="0px" y="0px" style="font-family:'Consolas', monospace;font-size:48px;fill:rgb(226,226,226);">$$$$@$$$$$$$$$@$$$$$$$$@$@@8ul)I&apos;*hBBqa@B&amp;x1/u&amp;B@@@@$$$$$$$$$$$$$$$$$$$@$$$$$$$$</text>
            </g>
            <g transform="matrix(1,0,0,1,64,1016)">
                <text x="0px" y="0px" style="font-family:'Consolas', monospace;font-size:48px;fill:rgb(226,226,226);">$$$$$$$$$$$$$@$$$$@$$$@8ou,&gt;Mn}mM@&amp;@%kW(pOMB&amp;B&amp;w]Yu#k&amp;B@$$$$@$$@$$$$$@$$$$$$$$$$</text>
            </g>
            <g transform="matrix(1,0,0,1,64,1072)">
                <text x="0px" y="0px" style="font-family:'Consolas', monospace;font-size:48px;fill:rgb(226,226,226);">$$$$$$$$$$$$$$$$$$$$@oc).;^/_\^,&apos;&quot;      &apos;fXnJl&apos;]C@BkY~&amp;o8@B$$$$$$$$$$$$$$$$$$$$$</text>
            </g>
            <g transform="matrix(1,0,0,1,64,1128)">
                <text x="0px" y="0px" style="font-family:'Consolas', monospace;font-size:48px;fill:rgb(226,226,226);">$$@$$$$$$@$$@$$$$$$@L.,)i.                     `_~J&lt;O%kpdX*W@$$$$$$$$$$$$$$$$$$$</text>
            </g>
            <g transform="matrix(1,0,0,1,64,1184)">
                <text x="0px" y="0px" style="font-family:'Consolas', monospace;font-size:48px;fill:rgb(226,226,226);">$$$$$$$@$$$@$$$@$$@&gt;.&lt;             iw%~   .~([&apos;      &gt;I ,?h8%h@$$$$$$$@$@$$$$$@$</text>
            </g>
            <g transform="matrix(1,0,0,1,64,1240)">
                <g transform="matrix(48,0,0,48,1002.84375,0)">
                </g>
                <g transform="matrix(48,0,0,48,1016.039062,0)">
                </g>
                <text x="0px" y="0px" style="font-family:'Consolas', monospace;font-size:48px;fill:rgb(226,226,226);">$$$$$$$@$$$$$@$@$@O&lt;:   &gt;/[l         ?ﬀd  n@@@W}         :jM%8@$@$$$@$$$$$$$$$$</text>
            </g>
            <g transform="matrix(1,0,0,1,64,1296)">
                <text x="0px" y="0px" style="font-family:'Consolas', monospace;font-size:48px;fill:rgb(226,226,226);">$$$$$$$$$$$$$$$$@w_    ^UW@i       l[[jO;. n@$@$@Q: f   `&apos;I/ZdQ@@@$$@@$$$$$$$$$$</text>
            </g>
            <g transform="matrix(1,0,0,1,64,1352)">
                <text x="0px" y="0px" style="font-family:'Consolas', monospace;font-size:48px;fill:rgb(226,226,226);">$$$$$$$$$$$$$$$$W}   ILaB$$o              .v@$$$@BhO,  .;fjn-CqB&amp;B$$@$$@$$$$$$$$</text>
            </g>
            <g transform="matrix(1,0,0,1,64,1408)">
                <text x="0px" y="0px" style="font-family:'Consolas', monospace;font-size:48px;fill:rgb(226,226,226);">$$$@$$$$$$$$$$@o{^,[}_wB@$@%n           &quot;w(%@@@@quU!;pX(kva@@@BB$$$$$@$$$$$$$$$$</text>
            </g>
            <g transform="matrix(1,0,0,1,64,1464)">
                <text x="0px" y="0px" style="font-family:'Consolas', monospace;font-size:48px;fill:rgb(226,226,226);">$$$$@$$$$$$$$$@8t   : ^;!+BZ8x          &quot;#M*B@BtJUu+br&amp;mW@$@@$$$$$$$$$$$$$$$$$$$</text>
            </g>
            <g transform="matrix(1,0,0,1,64,1520)">
                <text x="0px" y="0px" style="font-family:'Consolas', monospace;font-size:48px;fill:rgb(226,226,226);">$$$$$@$$$@$$$$@$Mw*%[c1M8#LuY?}c}[hU/p*X#IfxQ*WB%&amp;%YMB%@$$$$$$$$$$$$$@$$$$$$$$$$</text>
            </g>
            <g transform="matrix(1,0,0,1,64,1576)">
                <text x="0px" y="0px" style="font-family:'Consolas', monospace;font-size:48px;fill:rgb(226,226,226);">$$$$$$$$$$$$$$$$$$$$@WX01k0B@@Bo%M%Q /X8!B@wqB$$$$$@$$@$@$$$$$$$@$$$$$$$$$$$$$$$</text>
            </g>
            <g transform="matrix(1,0,0,1,64,1632)">
                <text x="0px" y="0px" style="font-family:'Consolas', monospace;font-size:48px;fill:rgb(226,226,226);">$$$$$$$$$$$$$$$$$$$$$$$$$$@BM@@@$$@@@@@$@@@@$$$$$$$$$$$$$$$$$$$$$@$$$$@$$$$$$$$$</text>
            </g>
            <g transform="matrix(1,0,0,1,64,1688)">
                <text x="0px" y="0px" style="font-family:'Consolas', monospace;font-size:48px;fill:rgb(226,226,226);">$$$$$$$$$$$$$@$$$$$$$$$$$$$$$$$$$@$$$$$$$$$$$@$$$$$$$$$$$$$$$$$$$$$$@$$$$$$$$$$$</text>
            </g>
            <g transform="matrix(1,0,0,1,64,1744)">
                <text x="0px" y="0px" style="font-family:'Consolas', monospace;font-size:48px;fill:rgb(226,226,226);">$$$$$$$@$$$@$$$$$$$@$$$$$$$$$@@$$$$$$$$$$$$$$$$$$$$$$$$@$$$$$@$$$$$$$@$$$$$$$$$$</text>
            </g>
            <g transform="matrix(1,0,0,1,64,1800)">
                <text x="0px" y="0px" style="font-family:'Consolas', monospace;font-size:48px;fill:rgb(226,226,226);">$$$$$$@$$$$$$$$$$$$$$$$$$$$$$$$$@$$$$$$$$$$$$$$$$$$$@$$$$$$$$$$$$$$$$$$$$$$$$$$$</text>
            </g>
            <g transform="matrix(1,0,0,1,64,1856)">
                <text x="0px" y="0px" style="font-family:'Consolas', monospace;font-size:48px;fill:rgb(226,226,226);">$$$$$$$@@$$$$$$@$$$$$$$$$$$@$$$$$$$@$$$$$$$@$$$$$@$$$$$$$$$$$$$$$$$$$$$$$$$$$$$$</text>
            </g>
            <g transform="matrix(1,0,0,1,64,1912)">
                <text x="0px" y="0px" style="font-family:'Consolas', monospace;font-size:48px;fill:rgb(226,226,226);">$$$$$$$$$$$$$$$$$@$$$$$$$$$$$$$$$$$$$$$$$$$$@$$$$$$$@$$$$$$$$$$@$$$@$$$$$$$@$@$$</text>
            </g>
            <g transform="matrix(1,0,0,1,64,1968)">
                <text x="0px" y="0px" style="font-family:'Consolas', monospace;font-size:48px;fill:rgb(226,226,226);">$$$$$$@$$$$$$$$$$$$$$$$@$$$$$$$$$$$$$$$$$$$@$$$$$$$$$$@$$$@$@$$$$@$$$$$$$$$$$$$$</text>
            </g>
            <g transform="matrix(1,0,0,1,64,2024)">
                <text x="0px" y="0px" style="font-family:'Consolas', monospace;font-size:48px;fill:rgb(226,226,226);">$$$$$$$$$$$$$$$$$$$$$$$$$$@$$$$$$$$$$$$$$@$$$$@$$$$$$$$$$$$$$$$$$$$$$$$$$$$$$@$$</text>
            </g>
            <g transform="matrix(1,0,0,1,64,2080)">
                <text x="0px" y="0px" style="font-family:'Consolas', monospace;font-size:48px;fill:rgb(226,226,226);">$$$$$$$$$$$$$$$$$$$$$@$$$$$$$$$@$$$@$$$$$$$@$$@$$$$$$$$$@$$$$$@$$$$$$$@$$@$$$$$$</text>
            </g>
            <g transform="matrix(1,0,0,1,64,2136)">
                <text x="0px" y="0px" style="font-family:'Consolas', monospace;font-size:48px;fill:rgb(226,226,226);">$$$$$$$$$$$$$$@$$$$$$$@$$$$$$$$$$$$$$$$$$$$@$$$$$$$$$@$@$$$$$$$$$$$$$$$$$@$$$$$$</text>
            </g>
            <g transform="matrix(1,0,0,1,64,2192)">
                <text x="0px" y="0px" style="font-family:'Consolas', monospace;font-size:48px;fill:rgb(226,226,226);">$$$$$$$@$$$$$$@$$$$@$$$$@$$$$$$$$$$$@$$$$$@$$$$@$$$$$$$$$$@$$$@$$$@$$$$$$$$$@$@$</text>
            </g>
            <g transform="matrix(1,0,0,1,64,2248)">
                <text x="0px" y="0px" style="font-family:'Consolas', monospace;font-size:48px;fill:rgb(226,226,226);">$$$$$$$$$$$$$$$$$$$$$$@$$$$$$$$$$$$$$$$$$$$$@$$$$$$$$$$$$$@$$$$$$$$$$$$$$$$$$$$$</text>
            </g>
            <g transform="matrix(1,0,0,1,64,2304)">
                <text x="0px" y="0px" style="font-family:'Consolas', monospace;font-size:48px;fill:rgb(226,226,226);">$$$$@$$$@$$$$$$@$$$$$$@$$$$$$$$$@$$$@$@$$$$$$$$@$$@$$$$$$$$$$$$$$$$@$$$$$$@$$$$$</text>
            </g>
            <g transform="matrix(1,0,0,1,64,2360)">
                <text x="0px" y="0px" style="font-family:'Consolas', monospace;font-size:48px;fill:rgb(226,226,226);">$$@@$$$@$$$$$$$$$$$$$$$$$$$$$$$@$$$$$$$$$$$$$$$$$$$$$$$$$$$$$$$$@$$$$$$$$$$$$$$$</text>
            </g>
            <g transform="matrix(1,0,0,1,64,2416)">
                <text x="0px" y="0px" style="font-family:'Consolas', monospace;font-size:48px;fill:rgb(226,226,226);">$$$$$$$$$$$$$$$$@$$$$$$$$$$$$$$$$$$$$$$$$$@@$$$$$$$$$$$$$$$$$$$$$$$$$$$$$$$$$$$$</text>
            </g>
            <g transform="matrix(1,0,0,1,64,2472)">
                <text x="0px" y="0px" style="font-family:'Consolas', monospace;font-size:48px;fill:rgb(226,226,226);">$$@$$$$$$$$$$$$$$$@$$$$$$$$$$$$$$$$$$$$$$$$$$$$$$$$$$$$@$$$$$$@$$$$@@$$@$$$@$$$$</text>
            </g>
        </g>
    </g>
</svg>
